<mxfile host="app.diagrams.net" modified="2023-09-26T23:19:06.881Z" agent="Mozilla/5.0 (Windows NT 10.0; Win64; x64) AppleWebKit/537.36 (KHTML, like Gecko) Chrome/116.0.0.0 Safari/537.36" etag="OdRdvx7Cijf1EVaPIcTz" version="21.7.5" type="device" pages="2">
  <diagram name="Page-1" id="03018318-947c-dd8e-b7a3-06fadd420f32">
    <mxGraphModel dx="1434" dy="800" grid="1" gridSize="10" guides="1" tooltips="1" connect="1" arrows="1" fold="1" page="1" pageScale="1" pageWidth="1100" pageHeight="850" background="#ffffff" math="0" shadow="0">
      <root>
        <mxCell id="0" />
        <mxCell id="1" parent="0" />
        <mxCell id="kr7dseUeSAHW4fu6wuV5-1" value="" style="strokeWidth=1;shadow=0;dashed=0;align=center;html=1;shape=mxgraph.mockup.containers.browserWindow;rSize=0;strokeColor=#666666;strokeColor2=#008cff;strokeColor3=#c4c4c4;mainText=,;recursiveResize=0;" parent="1" vertex="1">
          <mxGeometry x="50" y="20" width="1060" height="2370" as="geometry" />
        </mxCell>
        <mxCell id="kr7dseUeSAHW4fu6wuV5-2" value="Page 1" style="strokeWidth=1;shadow=0;dashed=0;align=center;html=1;shape=mxgraph.mockup.containers.anchor;fontSize=17;fontColor=#666666;align=left;whiteSpace=wrap;" parent="kr7dseUeSAHW4fu6wuV5-1" vertex="1">
          <mxGeometry x="60" y="12" width="110" height="26" as="geometry" />
        </mxCell>
        <mxCell id="kr7dseUeSAHW4fu6wuV5-3" value="https://www.draw.io" style="strokeWidth=1;shadow=0;dashed=0;align=center;html=1;shape=mxgraph.mockup.containers.anchor;rSize=0;fontSize=17;fontColor=#666666;align=left;" parent="kr7dseUeSAHW4fu6wuV5-1" vertex="1">
          <mxGeometry x="130" y="60" width="250" height="26" as="geometry" />
        </mxCell>
        <mxCell id="g51AlcryDWgI2Vs3FaKt-3" value="" style="image;html=1;image=img/lib/atlassian/Atlassian_Logo.svg;" parent="kr7dseUeSAHW4fu6wuV5-1" vertex="1">
          <mxGeometry x="20" y="122.5" width="40" height="35" as="geometry" />
        </mxCell>
        <mxCell id="g51AlcryDWgI2Vs3FaKt-2" value="" style="rounded=0;whiteSpace=wrap;html=1;fillColor=none;" parent="kr7dseUeSAHW4fu6wuV5-1" vertex="1">
          <mxGeometry y="110" width="1060" height="60" as="geometry" />
        </mxCell>
        <mxCell id="g51AlcryDWgI2Vs3FaKt-4" value="Nombre" style="text;html=1;align=center;verticalAlign=middle;whiteSpace=wrap;rounded=0;fontStyle=1;fontFamily=Georgia;fontColor=#3B90FF;fontSize=19;" parent="kr7dseUeSAHW4fu6wuV5-1" vertex="1">
          <mxGeometry x="75" y="127.5" width="80" height="30" as="geometry" />
        </mxCell>
        <mxCell id="g51AlcryDWgI2Vs3FaKt-13" value="Home |" style="text;html=1;align=center;verticalAlign=middle;whiteSpace=wrap;rounded=0;fontStyle=1;fontFamily=Georgia;fontColor=#3B90FF;fontSize=19;" parent="kr7dseUeSAHW4fu6wuV5-1" vertex="1">
          <mxGeometry x="600" y="122.5" width="80" height="30" as="geometry" />
        </mxCell>
        <mxCell id="g51AlcryDWgI2Vs3FaKt-14" value="Historia|" style="text;html=1;align=center;verticalAlign=middle;whiteSpace=wrap;rounded=0;fontStyle=1;fontFamily=Georgia;fontColor=#3B90FF;fontSize=19;" parent="kr7dseUeSAHW4fu6wuV5-1" vertex="1">
          <mxGeometry x="690" y="122.5" width="80" height="30" as="geometry" />
        </mxCell>
        <mxCell id="g51AlcryDWgI2Vs3FaKt-15" value="Shows |" style="text;html=1;align=center;verticalAlign=middle;whiteSpace=wrap;rounded=0;fontStyle=1;fontFamily=Georgia;fontColor=#3B90FF;fontSize=19;" parent="kr7dseUeSAHW4fu6wuV5-1" vertex="1">
          <mxGeometry x="780" y="122.5" width="80" height="30" as="geometry" />
        </mxCell>
        <mxCell id="g51AlcryDWgI2Vs3FaKt-16" value="Noticas |" style="text;html=1;align=center;verticalAlign=middle;whiteSpace=wrap;rounded=0;fontStyle=1;fontFamily=Georgia;fontColor=#3B90FF;fontSize=19;" parent="kr7dseUeSAHW4fu6wuV5-1" vertex="1">
          <mxGeometry x="860" y="122.5" width="90" height="30" as="geometry" />
        </mxCell>
        <mxCell id="g51AlcryDWgI2Vs3FaKt-37" value="Contacto" style="text;html=1;align=center;verticalAlign=middle;whiteSpace=wrap;rounded=0;fontStyle=1;fontFamily=Georgia;fontColor=#3B90FF;fontSize=19;" parent="kr7dseUeSAHW4fu6wuV5-1" vertex="1">
          <mxGeometry x="960" y="122.5" width="80" height="30" as="geometry" />
        </mxCell>
        <mxCell id="g51AlcryDWgI2Vs3FaKt-39" value="" style="verticalLabelPosition=bottom;shadow=0;dashed=0;align=center;html=1;verticalAlign=top;strokeWidth=1;shape=mxgraph.mockup.graphics.simpleIcon;strokeColor=#999999;" parent="kr7dseUeSAHW4fu6wuV5-1" vertex="1">
          <mxGeometry y="170" width="1060" height="630" as="geometry" />
        </mxCell>
        <mxCell id="g51AlcryDWgI2Vs3FaKt-40" value="&lt;h1&gt;Nombre Artista&lt;/h1&gt;&lt;p&gt;Lorem ipsum dolor sit amet, consectetur adipisicing elit, sed do eiusmod tempor incididunt ut labore et dolore magna aliqua.&lt;/p&gt;" style="text;html=1;strokeColor=none;fillColor=none;spacing=5;spacingTop=-20;whiteSpace=wrap;overflow=hidden;rounded=0;" parent="kr7dseUeSAHW4fu6wuV5-1" vertex="1">
          <mxGeometry x="770" y="670" width="240" height="120" as="geometry" />
        </mxCell>
        <mxCell id="g51AlcryDWgI2Vs3FaKt-43" value="" style="shape=flexArrow;endArrow=classic;html=1;rounded=0;" parent="kr7dseUeSAHW4fu6wuV5-1" target="g51AlcryDWgI2Vs3FaKt-45" edge="1">
          <mxGeometry width="50" height="50" relative="1" as="geometry">
            <mxPoint x="-30" y="570" as="sourcePoint" />
            <mxPoint x="20" y="520" as="targetPoint" />
          </mxGeometry>
        </mxCell>
        <mxCell id="g51AlcryDWgI2Vs3FaKt-45" value="Imagen Hero del artista con el colaborador mas famoso que tenga" style="rounded=0;whiteSpace=wrap;html=1;fillColor=#fff2cc;strokeColor=#d6b656;" parent="kr7dseUeSAHW4fu6wuV5-1" vertex="1">
          <mxGeometry x="75" y="430" width="245" height="90" as="geometry" />
        </mxCell>
        <mxCell id="g51AlcryDWgI2Vs3FaKt-46" value="" style="rounded=0;whiteSpace=wrap;html=1;" parent="kr7dseUeSAHW4fu6wuV5-1" vertex="1">
          <mxGeometry y="800" width="530" height="820" as="geometry" />
        </mxCell>
        <mxCell id="g51AlcryDWgI2Vs3FaKt-47" value="" style="rounded=0;whiteSpace=wrap;html=1;" parent="kr7dseUeSAHW4fu6wuV5-1" vertex="1">
          <mxGeometry x="530" y="800" width="530" height="820" as="geometry" />
        </mxCell>
        <mxCell id="g51AlcryDWgI2Vs3FaKt-48" value="" style="line;strokeWidth=1;rotatable=0;dashed=0;labelPosition=right;align=left;verticalAlign=middle;spacingTop=0;spacingLeft=6;points=[];portConstraint=eastwest;" parent="kr7dseUeSAHW4fu6wuV5-1" vertex="1">
          <mxGeometry y="1190" width="1060" height="10" as="geometry" />
        </mxCell>
        <mxCell id="g51AlcryDWgI2Vs3FaKt-49" value="&lt;h1&gt;Historia&lt;br&gt;&lt;/h1&gt;&lt;p&gt;Lorem ipsum dolor sit amet, consectetur adipisicing elit, sed do eiusmod tempor incididunt ut labore et dolore magna aliqua.&lt;/p&gt;" style="text;html=1;strokeColor=none;fillColor=none;spacing=5;spacingTop=-20;whiteSpace=wrap;overflow=hidden;rounded=0;align=center;" parent="kr7dseUeSAHW4fu6wuV5-1" vertex="1">
          <mxGeometry x="97.5" y="910" width="315" height="120" as="geometry" />
        </mxCell>
        <mxCell id="g51AlcryDWgI2Vs3FaKt-52" value="" style="verticalLabelPosition=bottom;shadow=0;dashed=0;align=center;html=1;verticalAlign=top;strokeWidth=1;shape=mxgraph.mockup.graphics.simpleIcon;strokeColor=#999999;" parent="kr7dseUeSAHW4fu6wuV5-1" vertex="1">
          <mxGeometry x="530" y="800" width="530" height="390" as="geometry" />
        </mxCell>
        <mxCell id="g51AlcryDWgI2Vs3FaKt-53" value="" style="verticalLabelPosition=bottom;shadow=0;dashed=0;align=center;html=1;verticalAlign=top;strokeWidth=1;shape=mxgraph.mockup.graphics.simpleIcon;strokeColor=#999999;" parent="kr7dseUeSAHW4fu6wuV5-1" vertex="1">
          <mxGeometry y="1200" width="530" height="420" as="geometry" />
        </mxCell>
        <mxCell id="g51AlcryDWgI2Vs3FaKt-55" value="" style="ellipse;whiteSpace=wrap;html=1;aspect=fixed;" parent="kr7dseUeSAHW4fu6wuV5-1" vertex="1">
          <mxGeometry x="650" y="1300" width="80" height="80" as="geometry" />
        </mxCell>
        <mxCell id="g51AlcryDWgI2Vs3FaKt-58" value="" style="ellipse;whiteSpace=wrap;html=1;aspect=fixed;" parent="kr7dseUeSAHW4fu6wuV5-1" vertex="1">
          <mxGeometry x="850" y="1420" width="80" height="80" as="geometry" />
        </mxCell>
        <mxCell id="g51AlcryDWgI2Vs3FaKt-59" value="" style="ellipse;whiteSpace=wrap;html=1;aspect=fixed;" parent="kr7dseUeSAHW4fu6wuV5-1" vertex="1">
          <mxGeometry x="640" y="1510" width="80" height="80" as="geometry" />
        </mxCell>
        <mxCell id="g51AlcryDWgI2Vs3FaKt-62" value="" style="endArrow=classic;html=1;rounded=0;entryX=0;entryY=0;entryDx=0;entryDy=0;exitX=1;exitY=1;exitDx=0;exitDy=0;" parent="kr7dseUeSAHW4fu6wuV5-1" source="g51AlcryDWgI2Vs3FaKt-55" target="g51AlcryDWgI2Vs3FaKt-58" edge="1">
          <mxGeometry width="50" height="50" relative="1" as="geometry">
            <mxPoint x="580" y="1400" as="sourcePoint" />
            <mxPoint x="630" y="1350" as="targetPoint" />
          </mxGeometry>
        </mxCell>
        <mxCell id="g51AlcryDWgI2Vs3FaKt-63" value="" style="endArrow=classic;html=1;rounded=0;exitX=0;exitY=1;exitDx=0;exitDy=0;" parent="kr7dseUeSAHW4fu6wuV5-1" source="g51AlcryDWgI2Vs3FaKt-58" target="g51AlcryDWgI2Vs3FaKt-59" edge="1">
          <mxGeometry width="50" height="50" relative="1" as="geometry">
            <mxPoint x="738" y="1333" as="sourcePoint" />
            <mxPoint x="902" y="1412" as="targetPoint" />
          </mxGeometry>
        </mxCell>
        <mxCell id="g51AlcryDWgI2Vs3FaKt-65" value="Text" style="text;html=1;strokeColor=none;fillColor=none;align=center;verticalAlign=middle;whiteSpace=wrap;rounded=0;" parent="kr7dseUeSAHW4fu6wuV5-1" vertex="1">
          <mxGeometry x="740" y="1310" width="60" height="30" as="geometry" />
        </mxCell>
        <mxCell id="g51AlcryDWgI2Vs3FaKt-66" value="Text" style="text;html=1;strokeColor=none;fillColor=none;align=center;verticalAlign=middle;whiteSpace=wrap;rounded=0;" parent="kr7dseUeSAHW4fu6wuV5-1" vertex="1">
          <mxGeometry x="780" y="1440" width="60" height="30" as="geometry" />
        </mxCell>
        <mxCell id="g51AlcryDWgI2Vs3FaKt-67" value="Text" style="text;html=1;strokeColor=none;fillColor=none;align=center;verticalAlign=middle;whiteSpace=wrap;rounded=0;" parent="kr7dseUeSAHW4fu6wuV5-1" vertex="1">
          <mxGeometry x="740" y="1550" width="60" height="30" as="geometry" />
        </mxCell>
        <mxCell id="g51AlcryDWgI2Vs3FaKt-68" value="&lt;h1&gt;Shows y Servicios&lt;/h1&gt;" style="text;html=1;strokeColor=none;fillColor=none;spacing=5;spacingTop=-20;whiteSpace=wrap;overflow=hidden;rounded=0;" parent="kr7dseUeSAHW4fu6wuV5-1" vertex="1">
          <mxGeometry x="430" y="1650" width="240" height="50" as="geometry" />
        </mxCell>
        <mxCell id="g51AlcryDWgI2Vs3FaKt-69" value="&lt;h1&gt;Trayectoria&lt;/h1&gt;" style="text;html=1;strokeColor=none;fillColor=none;spacing=5;spacingTop=-20;whiteSpace=wrap;overflow=hidden;rounded=0;align=center;" parent="kr7dseUeSAHW4fu6wuV5-1" vertex="1">
          <mxGeometry x="612.5" y="1210" width="315" height="50" as="geometry" />
        </mxCell>
        <mxCell id="g51AlcryDWgI2Vs3FaKt-75" value="" style="rounded=0;whiteSpace=wrap;html=1;" parent="kr7dseUeSAHW4fu6wuV5-1" vertex="1">
          <mxGeometry x="60" y="1740" width="240" height="260" as="geometry" />
        </mxCell>
        <mxCell id="g51AlcryDWgI2Vs3FaKt-76" value="" style="verticalLabelPosition=bottom;shadow=0;dashed=0;align=center;html=1;verticalAlign=top;strokeWidth=1;shape=mxgraph.mockup.graphics.simpleIcon;strokeColor=#b85450;fillColor=#f8cecc;" parent="kr7dseUeSAHW4fu6wuV5-1" vertex="1">
          <mxGeometry x="60" y="1740" width="240" height="220" as="geometry" />
        </mxCell>
        <mxCell id="g51AlcryDWgI2Vs3FaKt-77" value="Descripcion" style="text;html=1;strokeColor=none;fillColor=none;align=center;verticalAlign=middle;whiteSpace=wrap;rounded=0;" parent="kr7dseUeSAHW4fu6wuV5-1" vertex="1">
          <mxGeometry x="90" y="1970" width="165" height="30" as="geometry" />
        </mxCell>
        <mxCell id="g51AlcryDWgI2Vs3FaKt-78" value="" style="rounded=0;whiteSpace=wrap;html=1;" parent="kr7dseUeSAHW4fu6wuV5-1" vertex="1">
          <mxGeometry x="410" y="1740" width="240" height="260" as="geometry" />
        </mxCell>
        <mxCell id="g51AlcryDWgI2Vs3FaKt-79" value="" style="verticalLabelPosition=bottom;shadow=0;dashed=0;align=center;html=1;verticalAlign=top;strokeWidth=1;shape=mxgraph.mockup.graphics.simpleIcon;strokeColor=#b85450;fillColor=#f8cecc;" parent="kr7dseUeSAHW4fu6wuV5-1" vertex="1">
          <mxGeometry x="410" y="1740" width="240" height="220" as="geometry" />
        </mxCell>
        <mxCell id="g51AlcryDWgI2Vs3FaKt-80" value="Descripcion" style="text;html=1;strokeColor=none;fillColor=none;align=center;verticalAlign=middle;whiteSpace=wrap;rounded=0;" parent="kr7dseUeSAHW4fu6wuV5-1" vertex="1">
          <mxGeometry x="440" y="1970" width="165" height="30" as="geometry" />
        </mxCell>
        <mxCell id="g51AlcryDWgI2Vs3FaKt-81" value="" style="rounded=0;whiteSpace=wrap;html=1;" parent="kr7dseUeSAHW4fu6wuV5-1" vertex="1">
          <mxGeometry x="750" y="1740" width="240" height="260" as="geometry" />
        </mxCell>
        <mxCell id="g51AlcryDWgI2Vs3FaKt-82" value="" style="verticalLabelPosition=bottom;shadow=0;dashed=0;align=center;html=1;verticalAlign=top;strokeWidth=1;shape=mxgraph.mockup.graphics.simpleIcon;strokeColor=#b85450;fillColor=#f8cecc;" parent="kr7dseUeSAHW4fu6wuV5-1" vertex="1">
          <mxGeometry x="750" y="1740" width="240" height="220" as="geometry" />
        </mxCell>
        <mxCell id="g51AlcryDWgI2Vs3FaKt-83" value="Descripcion" style="text;html=1;strokeColor=none;fillColor=none;align=center;verticalAlign=middle;whiteSpace=wrap;rounded=0;" parent="kr7dseUeSAHW4fu6wuV5-1" vertex="1">
          <mxGeometry x="780" y="1970" width="165" height="30" as="geometry" />
        </mxCell>
        <mxCell id="g51AlcryDWgI2Vs3FaKt-84" value="" style="rounded=0;whiteSpace=wrap;html=1;" parent="kr7dseUeSAHW4fu6wuV5-1" vertex="1">
          <mxGeometry x="65" y="2050" width="240" height="260" as="geometry" />
        </mxCell>
        <mxCell id="g51AlcryDWgI2Vs3FaKt-85" value="" style="verticalLabelPosition=bottom;shadow=0;dashed=0;align=center;html=1;verticalAlign=top;strokeWidth=1;shape=mxgraph.mockup.graphics.simpleIcon;strokeColor=#b85450;fillColor=#f8cecc;" parent="kr7dseUeSAHW4fu6wuV5-1" vertex="1">
          <mxGeometry x="65" y="2050" width="240" height="220" as="geometry" />
        </mxCell>
        <mxCell id="g51AlcryDWgI2Vs3FaKt-86" value="Descripcion" style="text;html=1;strokeColor=none;fillColor=none;align=center;verticalAlign=middle;whiteSpace=wrap;rounded=0;" parent="kr7dseUeSAHW4fu6wuV5-1" vertex="1">
          <mxGeometry x="95" y="2280" width="165" height="30" as="geometry" />
        </mxCell>
        <mxCell id="g51AlcryDWgI2Vs3FaKt-87" value="" style="rounded=0;whiteSpace=wrap;html=1;" parent="kr7dseUeSAHW4fu6wuV5-1" vertex="1">
          <mxGeometry x="415" y="2050" width="240" height="260" as="geometry" />
        </mxCell>
        <mxCell id="g51AlcryDWgI2Vs3FaKt-88" value="" style="verticalLabelPosition=bottom;shadow=0;dashed=0;align=center;html=1;verticalAlign=top;strokeWidth=1;shape=mxgraph.mockup.graphics.simpleIcon;strokeColor=#b85450;fillColor=#f8cecc;" parent="kr7dseUeSAHW4fu6wuV5-1" vertex="1">
          <mxGeometry x="415" y="2050" width="240" height="220" as="geometry" />
        </mxCell>
        <mxCell id="g51AlcryDWgI2Vs3FaKt-89" value="Descripcion" style="text;html=1;strokeColor=none;fillColor=none;align=center;verticalAlign=middle;whiteSpace=wrap;rounded=0;" parent="kr7dseUeSAHW4fu6wuV5-1" vertex="1">
          <mxGeometry x="445" y="2280" width="165" height="30" as="geometry" />
        </mxCell>
        <mxCell id="g51AlcryDWgI2Vs3FaKt-90" value="" style="rounded=0;whiteSpace=wrap;html=1;" parent="kr7dseUeSAHW4fu6wuV5-1" vertex="1">
          <mxGeometry x="755" y="2050" width="240" height="260" as="geometry" />
        </mxCell>
        <mxCell id="g51AlcryDWgI2Vs3FaKt-91" value="" style="verticalLabelPosition=bottom;shadow=0;dashed=0;align=center;html=1;verticalAlign=top;strokeWidth=1;shape=mxgraph.mockup.graphics.simpleIcon;strokeColor=#b85450;fillColor=#f8cecc;" parent="kr7dseUeSAHW4fu6wuV5-1" vertex="1">
          <mxGeometry x="755" y="2050" width="240" height="220" as="geometry" />
        </mxCell>
        <mxCell id="g51AlcryDWgI2Vs3FaKt-92" value="Descripcion" style="text;html=1;strokeColor=none;fillColor=none;align=center;verticalAlign=middle;whiteSpace=wrap;rounded=0;" parent="kr7dseUeSAHW4fu6wuV5-1" vertex="1">
          <mxGeometry x="785" y="2280" width="165" height="30" as="geometry" />
        </mxCell>
      </root>
    </mxGraphModel>
  </diagram>
  <diagram id="rVHR41OU-gw1Uqym0LBX" name="Página-2">
    <mxGraphModel dx="1434" dy="800" grid="1" gridSize="10" guides="1" tooltips="1" connect="1" arrows="1" fold="1" page="1" pageScale="1" pageWidth="827" pageHeight="1169" math="0" shadow="0">
      <root>
        <mxCell id="0" />
        <mxCell id="1" parent="0" />
        <mxCell id="qUDBnx56yzu5zVTCP40M-1" value="" style="strokeWidth=1;shadow=0;dashed=0;align=center;html=1;shape=mxgraph.mockup.containers.browserWindow;rSize=0;strokeColor=#666666;strokeColor2=#008cff;strokeColor3=#c4c4c4;mainText=,;recursiveResize=0;" vertex="1" parent="1">
          <mxGeometry x="10" y="10" width="1060" height="2370" as="geometry" />
        </mxCell>
        <mxCell id="qUDBnx56yzu5zVTCP40M-2" value="Page 1" style="strokeWidth=1;shadow=0;dashed=0;align=center;html=1;shape=mxgraph.mockup.containers.anchor;fontSize=17;fontColor=#666666;align=left;whiteSpace=wrap;" vertex="1" parent="qUDBnx56yzu5zVTCP40M-1">
          <mxGeometry x="60" y="12" width="110" height="26" as="geometry" />
        </mxCell>
        <mxCell id="qUDBnx56yzu5zVTCP40M-3" value="https://www.draw.io" style="strokeWidth=1;shadow=0;dashed=0;align=center;html=1;shape=mxgraph.mockup.containers.anchor;rSize=0;fontSize=17;fontColor=#666666;align=left;" vertex="1" parent="qUDBnx56yzu5zVTCP40M-1">
          <mxGeometry x="130" y="60" width="250" height="26" as="geometry" />
        </mxCell>
        <mxCell id="qUDBnx56yzu5zVTCP40M-4" value="" style="image;html=1;image=img/lib/atlassian/Atlassian_Logo.svg;" vertex="1" parent="qUDBnx56yzu5zVTCP40M-1">
          <mxGeometry x="20" y="122.5" width="40" height="35" as="geometry" />
        </mxCell>
        <mxCell id="qUDBnx56yzu5zVTCP40M-5" value="" style="rounded=0;whiteSpace=wrap;html=1;fillColor=none;" vertex="1" parent="qUDBnx56yzu5zVTCP40M-1">
          <mxGeometry y="110" width="1060" height="60" as="geometry" />
        </mxCell>
        <mxCell id="qUDBnx56yzu5zVTCP40M-6" value="Nombre" style="text;html=1;align=center;verticalAlign=middle;whiteSpace=wrap;rounded=0;fontStyle=1;fontFamily=Georgia;fontColor=#3B90FF;fontSize=19;" vertex="1" parent="qUDBnx56yzu5zVTCP40M-1">
          <mxGeometry x="75" y="127.5" width="80" height="30" as="geometry" />
        </mxCell>
        <mxCell id="qUDBnx56yzu5zVTCP40M-7" value="Home |" style="text;html=1;align=center;verticalAlign=middle;whiteSpace=wrap;rounded=0;fontStyle=1;fontFamily=Georgia;fontColor=#3B90FF;fontSize=19;" vertex="1" parent="qUDBnx56yzu5zVTCP40M-1">
          <mxGeometry x="600" y="122.5" width="80" height="30" as="geometry" />
        </mxCell>
        <mxCell id="qUDBnx56yzu5zVTCP40M-8" value="Historia|" style="text;html=1;align=center;verticalAlign=middle;whiteSpace=wrap;rounded=0;fontStyle=1;fontFamily=Georgia;fontColor=#3B90FF;fontSize=19;" vertex="1" parent="qUDBnx56yzu5zVTCP40M-1">
          <mxGeometry x="690" y="122.5" width="80" height="30" as="geometry" />
        </mxCell>
        <mxCell id="qUDBnx56yzu5zVTCP40M-9" value="Shows |" style="text;html=1;align=center;verticalAlign=middle;whiteSpace=wrap;rounded=0;fontStyle=1;fontFamily=Georgia;fontColor=#3B90FF;fontSize=19;" vertex="1" parent="qUDBnx56yzu5zVTCP40M-1">
          <mxGeometry x="780" y="122.5" width="80" height="30" as="geometry" />
        </mxCell>
        <mxCell id="qUDBnx56yzu5zVTCP40M-10" value="Noticas |" style="text;html=1;align=center;verticalAlign=middle;whiteSpace=wrap;rounded=0;fontStyle=1;fontFamily=Georgia;fontColor=#3B90FF;fontSize=19;" vertex="1" parent="qUDBnx56yzu5zVTCP40M-1">
          <mxGeometry x="860" y="122.5" width="90" height="30" as="geometry" />
        </mxCell>
        <mxCell id="qUDBnx56yzu5zVTCP40M-11" value="Contacto" style="text;html=1;align=center;verticalAlign=middle;whiteSpace=wrap;rounded=0;fontStyle=1;fontFamily=Georgia;fontColor=#3B90FF;fontSize=19;" vertex="1" parent="qUDBnx56yzu5zVTCP40M-1">
          <mxGeometry x="960" y="122.5" width="80" height="30" as="geometry" />
        </mxCell>
        <mxCell id="5GulLQE1D9M5NrkmalLU-1" value="&lt;h1 style=&quot;font-size: 37px;&quot;&gt;Formulario de Contacto&lt;/h1&gt;" style="text;html=1;strokeColor=none;fillColor=none;spacing=5;spacingTop=-20;whiteSpace=wrap;overflow=hidden;rounded=0;fontSize=37;" vertex="1" parent="qUDBnx56yzu5zVTCP40M-1">
          <mxGeometry x="290" y="260" width="490" height="100" as="geometry" />
        </mxCell>
        <mxCell id="5GulLQE1D9M5NrkmalLU-2" value="From" style="strokeWidth=1;shadow=0;dashed=0;align=center;html=1;shape=mxgraph.mockup.forms.anchor;align=right;spacingRight=2;fontColor=#666666;" vertex="1" parent="qUDBnx56yzu5zVTCP40M-1">
          <mxGeometry x="210" y="380" width="50" height="18" as="geometry" />
        </mxCell>
        <mxCell id="5GulLQE1D9M5NrkmalLU-3" value="john@jgraph.com" style="strokeWidth=1;shadow=0;dashed=0;align=center;html=1;shape=mxgraph.mockup.forms.rrect;fillColor=#ffffff;rSize=0;fontColor=#666666;align=left;spacingLeft=3;strokeColor=#999999;" vertex="1" parent="qUDBnx56yzu5zVTCP40M-1">
          <mxGeometry x="260" y="380" width="350" height="18" as="geometry" />
        </mxCell>
        <mxCell id="5GulLQE1D9M5NrkmalLU-4" value="Subject" style="strokeWidth=1;shadow=0;dashed=0;align=center;html=1;shape=mxgraph.mockup.forms.anchor;align=right;spacingRight=2;fontColor=#666666;" vertex="1" parent="qUDBnx56yzu5zVTCP40M-1">
          <mxGeometry x="210" y="415" width="50" height="18" as="geometry" />
        </mxCell>
        <mxCell id="5GulLQE1D9M5NrkmalLU-5" value="Greeting" style="strokeWidth=1;shadow=0;dashed=0;align=center;html=1;shape=mxgraph.mockup.forms.rrect;fillColor=#ffffff;rSize=0;fontColor=#666666;align=left;spacingLeft=3;strokeColor=#999999;" vertex="1" parent="qUDBnx56yzu5zVTCP40M-1">
          <mxGeometry x="260" y="415" width="350" height="18" as="geometry" />
        </mxCell>
        <mxCell id="5GulLQE1D9M5NrkmalLU-6" value="To" style="strokeWidth=1;shadow=0;dashed=0;align=center;html=1;shape=mxgraph.mockup.forms.anchor;align=right;spacingRight=2;fontColor=#666666;" vertex="1" parent="qUDBnx56yzu5zVTCP40M-1">
          <mxGeometry x="210" y="450" width="50" height="18" as="geometry" />
        </mxCell>
        <mxCell id="5GulLQE1D9M5NrkmalLU-7" value="fred@jgraph.com" style="strokeWidth=1;shadow=0;dashed=0;align=center;html=1;shape=mxgraph.mockup.forms.rrect;fillColor=#ffffff;rSize=0;fontColor=#666666;align=left;spacingLeft=3;strokeColor=#999999;" vertex="1" parent="qUDBnx56yzu5zVTCP40M-1">
          <mxGeometry x="260" y="450" width="350" height="18" as="geometry" />
        </mxCell>
        <mxCell id="5GulLQE1D9M5NrkmalLU-8" value="CC" style="strokeWidth=1;shadow=0;dashed=0;align=center;html=1;shape=mxgraph.mockup.forms.anchor;align=right;spacingRight=2;fontColor=#666666;" vertex="1" parent="qUDBnx56yzu5zVTCP40M-1">
          <mxGeometry x="210" y="485" width="50" height="18" as="geometry" />
        </mxCell>
        <mxCell id="5GulLQE1D9M5NrkmalLU-9" value="" style="strokeWidth=1;shadow=0;dashed=0;align=center;html=1;shape=mxgraph.mockup.forms.rrect;fillColor=#ffffff;rSize=0;fontColor=#666666;align=left;spacingLeft=3;strokeColor=#999999;" vertex="1" parent="qUDBnx56yzu5zVTCP40M-1">
          <mxGeometry x="260" y="485" width="350" height="18" as="geometry" />
        </mxCell>
        <mxCell id="5GulLQE1D9M5NrkmalLU-10" value="BCC" style="strokeWidth=1;shadow=0;dashed=0;align=center;html=1;shape=mxgraph.mockup.forms.anchor;align=right;spacingRight=2;fontColor=#666666;" vertex="1" parent="qUDBnx56yzu5zVTCP40M-1">
          <mxGeometry x="210" y="520" width="50" height="18" as="geometry" />
        </mxCell>
        <mxCell id="5GulLQE1D9M5NrkmalLU-11" value="" style="strokeWidth=1;shadow=0;dashed=0;align=center;html=1;shape=mxgraph.mockup.forms.rrect;fillColor=#ffffff;rSize=0;fontColor=#666666;align=left;spacingLeft=3;strokeColor=#999999;" vertex="1" parent="qUDBnx56yzu5zVTCP40M-1">
          <mxGeometry x="260" y="520" width="350" height="18" as="geometry" />
        </mxCell>
        <mxCell id="5GulLQE1D9M5NrkmalLU-12" value="Lorem ipsum dolor sit amet, consectetur adipisicing elit, sed do eiusmod tempor incididunt ut labore et dolore magna aliqua. Ut enim ad minim veniam, quis nostrud exercitation ullamco laboris nisi ut aliquip ex ea commodo consequat. Duis aute irure dolor in reprehenderit in voluptate velit esse cillum dolore eu fugiat nulla pariatur. Excepteur sint occaecat cupidatat non proident, sunt in culpa qui officia deserunt mollit anim id est laborum." style="strokeWidth=1;shadow=0;dashed=0;align=center;html=1;shape=mxgraph.mockup.forms.rrect;fillColor=#ffffff;rSize=0;fontColor=#666666;align=left;spacingLeft=3;strokeColor=#999999;verticalAlign=top;whiteSpace=wrap;" vertex="1" parent="qUDBnx56yzu5zVTCP40M-1">
          <mxGeometry x="210" y="555" width="400" height="125" as="geometry" />
        </mxCell>
        <mxCell id="5GulLQE1D9M5NrkmalLU-13" value="" style="strokeWidth=1;shadow=0;dashed=0;align=center;html=1;shape=mxgraph.mockup.forms.rrect;rSize=0;strokeColor=#999999;fillColor=#ffffff;recursiveResize=0;" vertex="1" parent="qUDBnx56yzu5zVTCP40M-1">
          <mxGeometry x="710" y="393" width="150" height="120" as="geometry" />
        </mxCell>
        <mxCell id="5GulLQE1D9M5NrkmalLU-14" value="Option 1" style="strokeWidth=1;shadow=0;dashed=0;align=center;html=1;shape=mxgraph.mockup.forms.rrect;rSize=0;fillColor=#eeeeee;strokeColor=#999999;gradientColor=#cccccc;align=left;spacingLeft=4;fontSize=17;fontColor=#666666;labelPosition=right;" vertex="1" parent="5GulLQE1D9M5NrkmalLU-13">
          <mxGeometry x="8" y="7.5" width="15" height="15" as="geometry" />
        </mxCell>
        <mxCell id="5GulLQE1D9M5NrkmalLU-15" value="Option 2" style="strokeWidth=1;shadow=0;dashed=0;align=center;html=1;shape=mxgraph.mockup.forms.rrect;rSize=0;fillColor=#eeeeee;strokeColor=#999999;gradientColor=#cccccc;align=left;spacingLeft=4;fontSize=17;fontColor=#666666;labelPosition=right;" vertex="1" parent="5GulLQE1D9M5NrkmalLU-13">
          <mxGeometry x="8" y="37.5" width="15" height="15" as="geometry" />
        </mxCell>
        <mxCell id="5GulLQE1D9M5NrkmalLU-16" value="Option 3" style="strokeWidth=1;shadow=0;dashed=0;align=center;html=1;shape=mxgraph.mockup.forms.checkbox;rSize=0;resizable=0;fillColor=#aaaaaa;strokeColor=#444444;gradientColor=#666666;align=left;spacingLeft=4;fontSize=17;fontColor=#008cff;labelPosition=right;" vertex="1" parent="5GulLQE1D9M5NrkmalLU-13">
          <mxGeometry x="8" y="67.5" width="15" height="15" as="geometry" />
        </mxCell>
        <mxCell id="5GulLQE1D9M5NrkmalLU-17" value="Option 4" style="strokeWidth=1;shadow=0;dashed=0;align=center;html=1;shape=mxgraph.mockup.forms.rrect;rSize=0;fillColor=#eeeeee;strokeColor=#999999;gradientColor=#cccccc;align=left;spacingLeft=4;fontSize=17;fontColor=#666666;labelPosition=right;" vertex="1" parent="5GulLQE1D9M5NrkmalLU-13">
          <mxGeometry x="8" y="97.5" width="15" height="15" as="geometry" />
        </mxCell>
        <mxCell id="5GulLQE1D9M5NrkmalLU-18" value="" style="strokeWidth=1;shadow=0;dashed=0;align=center;html=1;shape=mxgraph.mockup.forms.rrect;rSize=0;strokeColor=#999999;fillColor=#ffffff;recursiveResize=0;" vertex="1" parent="qUDBnx56yzu5zVTCP40M-1">
          <mxGeometry x="710" y="540" width="150" height="120" as="geometry" />
        </mxCell>
        <mxCell id="5GulLQE1D9M5NrkmalLU-19" value="Setting 1" style="shape=ellipse;rSize=0;fillColor=#eeeeee;strokeColor=#999999;gradientColor=#cccccc;html=1;align=left;spacingLeft=4;fontSize=17;fontColor=#666666;labelPosition=right;" vertex="1" parent="5GulLQE1D9M5NrkmalLU-18">
          <mxGeometry x="8" y="7.5" width="15" height="15" as="geometry" />
        </mxCell>
        <mxCell id="5GulLQE1D9M5NrkmalLU-20" value="Setting 2" style="shape=ellipse;rSize=0;fillColor=#eeeeee;strokeColor=#999999;gradientColor=#cccccc;html=1;align=left;spacingLeft=4;fontSize=17;fontColor=#666666;labelPosition=right;" vertex="1" parent="5GulLQE1D9M5NrkmalLU-18">
          <mxGeometry x="8" y="37.5" width="15" height="15" as="geometry" />
        </mxCell>
        <mxCell id="5GulLQE1D9M5NrkmalLU-21" value="Setting 3" style="shape=ellipse;rSize=0;fillColor=#aaaaaa;strokeColor=#444444;gradientColor=#666666;html=1;align=left;spacingLeft=4;fontSize=17;fontColor=#008cff;labelPosition=right;" vertex="1" parent="5GulLQE1D9M5NrkmalLU-18">
          <mxGeometry x="8" y="67.5" width="15" height="15" as="geometry" />
        </mxCell>
        <mxCell id="5GulLQE1D9M5NrkmalLU-22" value="" style="shape=ellipse;fillColor=#444444;strokeColor=none;html=1;" vertex="1" parent="5GulLQE1D9M5NrkmalLU-21">
          <mxGeometry x="3" y="3" width="9" height="9" as="geometry" />
        </mxCell>
        <mxCell id="5GulLQE1D9M5NrkmalLU-23" value="Setting 4" style="shape=ellipse;rSize=0;fillColor=#eeeeee;strokeColor=#999999;gradientColor=#cccccc;html=1;align=left;spacingLeft=4;fontSize=17;fontColor=#666666;labelPosition=right;" vertex="1" parent="5GulLQE1D9M5NrkmalLU-18">
          <mxGeometry x="8" y="97.5" width="15" height="15" as="geometry" />
        </mxCell>
        <mxCell id="5GulLQE1D9M5NrkmalLU-24" value="Button" style="labelPosition=center;verticalLabelPosition=middle;align=center;html=1;shape=mxgraph.basic.button;dx=10;whiteSpace=wrap;" vertex="1" parent="qUDBnx56yzu5zVTCP40M-1">
          <mxGeometry x="480" y="750" width="100" height="60" as="geometry" />
        </mxCell>
      </root>
    </mxGraphModel>
  </diagram>
</mxfile>
